<svg id="Group_37" data-name="Group 37" xmlns="http://www.w3.org/2000/svg" xmlns:xlink="http://www.w3.org/1999/xlink" width="338.034" height="346.477" viewBox="0 0 338.034 346.477">
  <defs>
    <clipPath id="clip-path">
      <rect id="Rectangle_49" data-name="Rectangle 49" width="338.034" height="346.477" fill="#eda825"/>
    </clipPath>
  </defs>
  <g id="Group_36" data-name="Group 36" clip-path="url(#clip-path)">
    <path id="Path_192" data-name="Path 192" d="M337.471,241.472,310.09,97.486a31.875,31.875,0,0,0-13.127-20.223L193.949,5.695a31.87,31.87,0,0,0-37.5.826L12.557,116.184a31.883,31.883,0,0,0-9.894,38.106L64.09,295.051a31.865,31.865,0,0,0,19.082,17.471l96.394,32.3a31.879,31.879,0,0,0,26.047-2.61l116.47-67.176a31.88,31.88,0,0,0,15.387-33.571Z" transform="translate(0 0)" fill="#eda825"/>
  </g>
</svg>
