<svg id="Group_2" data-name="Group 2" xmlns="http://www.w3.org/2000/svg" xmlns:xlink="http://www.w3.org/1999/xlink" width="204.058" height="114.22" viewBox="0 0 204.058 114.22">
  <defs>
    <linearGradient id="linear-gradient" x1="0.5" x2="0.5" y2="1" gradientUnits="objectBoundingBox">
      <stop offset="0" stop-color="#dea223"/>
      <stop offset="1" stop-color="#174e81"/>
    </linearGradient>
    <filter id="Path_1" x="-75.5" y="-65.5" width="355.058" height="265.22" filterUnits="userSpaceOnUse">
      <feOffset dy="10" input="SourceAlpha"/>
      <feGaussianBlur stdDeviation="25" result="blur"/>
      <feFlood flood-opacity="0.161"/>
      <feComposite operator="in" in2="blur"/>
      <feComposite in="SourceGraphic"/>
    </filter>
    <clipPath id="clip-path">
      <g transform="matrix(1, 0, 0, 1, 0, 0)" filter="url(#Path_1)">
        <path id="Path_1-2" data-name="Path 1" d="M67.269,61.508H70.02V52.852H67.269Zm70.237-8.655V57.39a2.092,2.092,0,0,1-.482,1.428,1.6,1.6,0,0,1-1.27.552,1.419,1.419,0,0,1-1.13-.473,1.936,1.936,0,0,1-.412-1.314v-4.73h-2.751v4.888a4.191,4.191,0,0,0,.946,2.908,3.249,3.249,0,0,0,2.54,1.051,3.862,3.862,0,0,0,1.55-.307,3.229,3.229,0,0,0,1.2-.884l.175,1h2.383V52.853Zm-13.779,5.9a2.467,2.467,0,0,1,0-3.154,1.928,1.928,0,0,1,1.48-.613,1.97,1.97,0,0,1,1.489.6,2.464,2.464,0,0,1,0,3.171,1.969,1.969,0,0,1-1.489.6,1.927,1.927,0,0,1-1.48-.613m-.744-4.888-.175-1.016h-2.382v12.4h2.75v-4.59a3.736,3.736,0,0,0,2.681,1.016,4.1,4.1,0,0,0,2.155-.569,3.886,3.886,0,0,0,1.472-1.595,5.467,5.467,0,0,0,0-4.678,3.885,3.885,0,0,0-1.472-1.594,4.1,4.1,0,0,0-2.155-.569,3.7,3.7,0,0,0-2.873,1.191m-26.4,4.888a2.5,2.5,0,0,1,0-3.154,1.88,1.88,0,0,1,1.454-.613,1.9,1.9,0,0,1,1.472.613,2.5,2.5,0,0,1,0,3.154,1.9,1.9,0,0,1-1.472.613,1.879,1.879,0,0,1-1.454-.613m-1.06-5.528a4.02,4.02,0,0,0-1.656,1.586,5.127,5.127,0,0,0,0,4.73,4.016,4.016,0,0,0,1.656,1.586,5.3,5.3,0,0,0,2.514.569,5.358,5.358,0,0,0,2.523-.569,4,4,0,0,0,1.665-1.586,5.129,5.129,0,0,0,0-4.73,4.007,4.007,0,0,0-1.665-1.586,5.362,5.362,0,0,0-2.523-.57,5.307,5.307,0,0,0-2.514.57m16.425.78a2.721,2.721,0,0,0-1.051-.99,3.123,3.123,0,0,0-1.507-.36,3.221,3.221,0,0,0-1.375.3,3.068,3.068,0,0,0-1.095.859l-.158-.964h-2.383v8.655h2.751v-4.73a1.9,1.9,0,0,1,.429-1.3,1.449,1.449,0,0,1,1.148-.49,1.215,1.215,0,0,1,1,.429,1.848,1.848,0,0,1,.351,1.2v4.888h2.733v-4.73a1.925,1.925,0,0,1,.42-1.3,1.424,1.424,0,0,1,1.139-.49,1.241,1.241,0,0,1,1.007.429,1.818,1.818,0,0,1,.359,1.2v4.888h2.751V56.269a3.614,3.614,0,0,0-.946-2.646,3.47,3.47,0,0,0-2.593-.964,3.555,3.555,0,0,0-2.978,1.35m40.673,1.244a2.055,2.055,0,0,1,1.34-.421,2.014,2.014,0,0,1,1.341.421,1.607,1.607,0,0,1,.552,1.174h-3.819a1.635,1.635,0,0,1,.587-1.174m-1.183-2.024a4.088,4.088,0,0,0-1.638,1.6,5.1,5.1,0,0,0,.009,4.766,3.981,3.981,0,0,0,1.7,1.568,5.769,5.769,0,0,0,2.611.552,6.2,6.2,0,0,0,2.146-.368A5.1,5.1,0,0,0,158,60.3l-1.436-1.542a3.209,3.209,0,0,1-1.051.543,4.186,4.186,0,0,1-1.262.192,2.619,2.619,0,0,1-1.524-.412A1.632,1.632,0,0,1,152.013,58h6.36a7.573,7.573,0,0,0,.087-1.034,4.521,4.521,0,0,0-.552-2.269,3.768,3.768,0,0,0-1.586-1.507,5.283,5.283,0,0,0-2.453-.534,5.038,5.038,0,0,0-2.435.57M143.166,50.7v2.155h-1.472v2.19h1.472v3.276a3.445,3.445,0,0,0,.823,2.567,3.087,3.087,0,0,0,2.242.8,5.062,5.062,0,0,0,2.3-.508l-.648-2.067a2.206,2.206,0,0,1-1,.245.987.987,0,0,1-.718-.254,1.039,1.039,0,0,1-.262-.78V55.043h2.155v-2.19H145.9V50.4Zm-85.55-1.454V61.508h2.733V58.074l2.646,3.434h3.4l-3.627-4.555,3.119-4.1H62.749l-2.4,3.276V49.244ZM72.088,61.508h2.751V49.243H72.088Zm4.818,0h2.751V49.243H76.905ZM67.5,49.419a1.512,1.512,0,0,0-.009,2.155,1.825,1.825,0,0,0,2.33,0,1.512,1.512,0,0,0-.009-2.155,1.8,1.8,0,0,0-2.313,0m-19.167.018a4.07,4.07,0,0,0-1.77,1.331,3.258,3.258,0,0,0-.631,1.98A3.031,3.031,0,0,0,47.1,55.305a7.46,7.46,0,0,0,3.671,1.174,5.239,5.239,0,0,1,1.892.473,1.025,1.025,0,0,1,.6.928,1.116,1.116,0,0,1-.639,1,3.466,3.466,0,0,1-1.726.368,5.978,5.978,0,0,1-3.8-1.279L45.6,60.053a7.458,7.458,0,0,0,2.409,1.279,9.271,9.271,0,0,0,2.9.456,7.062,7.062,0,0,0,2.7-.482,4.14,4.14,0,0,0,1.822-1.366,3.363,3.363,0,0,0,.648-2.041,3.138,3.138,0,0,0-1.226-2.619,7.4,7.4,0,0,0-3.714-1.235,5.268,5.268,0,0,1-1.848-.473.983.983,0,0,1-.552-.893,1.057,1.057,0,0,1,.639-.946,3.558,3.558,0,0,1,1.708-.351,5.434,5.434,0,0,1,3.171,1L55.6,50.365a7.257,7.257,0,0,0-2.146-1.033,8.575,8.575,0,0,0-2.5-.368,6.806,6.806,0,0,0-2.628.473m36.108.324a5.729,5.729,0,0,0-2.321,2.26,6.664,6.664,0,0,0-.832,3.355,6.732,6.732,0,0,0,.815,3.346,5.672,5.672,0,0,0,2.313,2.26,7.229,7.229,0,0,0,3.478.806,6.64,6.64,0,0,0,4.783-1.91L90.992,58a4.04,4.04,0,0,1-1.4.911,4.582,4.582,0,0,1-1.682.316,3.891,3.891,0,0,1-1.954-.482A3.3,3.3,0,0,1,84.64,57.39a4.6,4.6,0,0,1,0-4.029A3.309,3.309,0,0,1,85.954,52a3.9,3.9,0,0,1,1.954-.482,3.94,3.94,0,0,1,2.821,1.121l1.77-1.769a6.418,6.418,0,0,0-4.66-1.91,7.088,7.088,0,0,0-3.4.8M23.82,10.127H180.24v91.714H23.82ZM18.757,0a5.251,5.251,0,0,0-5.252,5.252v96.589H0v7.127a5.252,5.252,0,0,0,5.252,5.252H198.806a5.251,5.251,0,0,0,5.252-5.252v-7.127h-13.5V5.252A5.251,5.251,0,0,0,185.3,0Z" stroke="rgba(0,0,0,0)" stroke-width="1" fill="url(#linear-gradient)"/>
      </g>
    </clipPath>
    <filter id="Rectangle_2" x="-75.5" y="-65.5" width="355.058" height="265.22" filterUnits="userSpaceOnUse">
      <feOffset dy="10" input="SourceAlpha"/>
      <feGaussianBlur stdDeviation="25" result="blur-2"/>
      <feFlood flood-opacity="0.161"/>
      <feComposite operator="in" in2="blur-2"/>
      <feComposite in="SourceGraphic"/>
    </filter>
  </defs>
  <g id="Group_1" data-name="Group 1" clip-path="url(#clip-path)">
    <g transform="matrix(1, 0, 0, 1, 0, 0)" filter="url(#Rectangle_2)">
      <rect id="Rectangle_2-2" data-name="Rectangle 2" width="204.058" height="114.22" transform="translate(0)" stroke="rgba(0,0,0,0)" stroke-width="1" fill="url(#linear-gradient)"/>
    </g>
  </g>
</svg>
