<svg xmlns="http://www.w3.org/2000/svg" width="432.354" height="427.208" viewBox="0 0 432.354 427.208">
  <path id="Path_194" data-name="Path 194" d="M236.344,1.2,89.618,41.92A33.115,33.115,0,0,0,69.8,57.28L4.462,170.4A33.318,33.318,0,0,0,8.5,209.289L134.24,349.435a33.026,33.026,0,0,0,40.286,7.033l140.493-75.812a33.2,33.2,0,0,0,16.466-21.313l25.256-102.9a33.326,33.326,0,0,0-4.914-26.837L272.4,14.33A33.05,33.05,0,0,0,236.341,1.2Z" transform="translate(360.784 6.449) rotate(80)" fill="#175081" stroke="#fff" stroke-width="10"/>
</svg>
